<svg width="1200" height="6000" xmlns="http://www.w3.org/2000/svg">
  <!-- LANDING PAGE -->
  <text x="50" y="30" font-family="Arial" font-size="20" font-weight="bold" fill="#333">LANDING PAGE</text>
  <rect x="0" y="50" width="1200" height="40" fill="#1e3a8a" stroke="#ccc"/>
  <text x="50" y="75" font-family="Arial" font-size="12" fill="#fff">alumni@dnyanasadhana.edu.in | +91-22-2534-1191</text>
  <text x="900" y="75" font-family="Arial" font-size="12" fill="#fff">Student | Faculty</text>
  
  <rect x="0" y="90" width="1200" height="80" fill="#fff" stroke="#ccc"/>
  <circle cx="80" cy="130" r="25" fill="#e0e0e0"/>
  <text x="120" y="125" font-family="Arial" font-size="16" font-weight="bold">SPDNC</text>
  <text x="120" y="140" font-family="Arial" font-size="12" fill="#666">Alumni Portal</text>
  <text x="700" y="135" font-family="Arial" font-size="14">Dashboard | Directory | Events | Careers | News</text>
  
  <rect x="0" y="170" width="1200" height="300" fill="#f8f9fa" stroke="#ccc"/>
  <text x="100" y="220" font-family="Arial" font-size="32" font-weight="bold">Satish Pradhan Dnyanasadhana College</text>
  <text x="100" y="260" font-family="Arial" font-size="24" fill="#666">Alumni Portal</text>
  <rect x="100" y="300" width="150" height="40" fill="#1e3a8a"/>
  <text x="150" y="325" font-family="Arial" font-size="14" fill="#fff">Join Network</text>
  <rect x="270" y="300" width="120" height="40" fill="none" stroke="#1e3a8a"/>
  <text x="310" y="325" font-family="Arial" font-size="14" fill="#1e3a8a">Login</text>
  <circle cx="900" cy="320" r="80" fill="#e0e0e0"/>
  
  <!-- LOGIN PAGE -->
  <text x="50" y="550" font-family="Arial" font-size="20" font-weight="bold" fill="#333">LOGIN PAGE</text>
  <rect x="0" y="570" width="1200" height="300" fill="#f8f9fa" stroke="#ccc"/>
  <rect x="400" y="620" width="400" height="200" fill="#fff" stroke="#ddd" rx="10"/>
  <circle cx="500" cy="660" r="30" fill="#e0e0e0"/>
  <text x="540" y="655" font-family="Arial" font-size="16" font-weight="bold">SPDNC</text>
  <text x="540" y="670" font-family="Arial" font-size="12" fill="#666">Alumni Portal</text>
  <text x="580" y="700" font-family="Arial" font-size="24" font-weight="bold">Welcome Back</text>
  <rect x="420" y="730" width="360" height="30" fill="#f8f9fa" stroke="#ccc"/>
  <text x="430" y="750" font-family="Arial" font-size="12" fill="#666">Email Address</text>
  <rect x="420" y="770" width="360" height="30" fill="#f8f9fa" stroke="#ccc"/>
  <text x="430" y="790" font-family="Arial" font-size="12" fill="#666">Password</text>
  
  <!-- DASHBOARD PAGE -->
  <text x="50" y="950" font-family="Arial" font-size="20" font-weight="bold" fill="#333">DASHBOARD PAGE</text>
  <rect x="0" y="970" width="250" height="300" fill="#fff" stroke="#ccc"/>
  <text x="20" y="1000" font-family="Arial" font-size="14" font-weight="bold">Quick Links</text>
  <rect x="20" y="1020" width="210" height="30" fill="#f8f9fa"/>
  <text x="30" y="1040" font-family="Arial" font-size="12">My Profile</text>
  <rect x="20" y="1060" width="210" height="30" fill="#f8f9fa"/>
  <text x="30" y="1080" font-family="Arial" font-size="12">My Connections</text>
  
  <rect x="270" y="970" width="900" height="300" fill="#fff" stroke="#ccc"/>
  <text x="290" y="1000" font-family="Arial" font-size="24" font-weight="bold">Welcome back, Demo User!</text>
  <rect x="290" y="1020" width="250" height="100" fill="#f8f9fa"/>
  <text x="300" y="1040" font-family="Arial" font-size="12">Profile Completion</text>
  <text x="300" y="1060" font-family="Arial" font-size="24" font-weight="bold">75%</text>
  <rect x="560" y="1020" width="250" height="100" fill="#f8f9fa"/>
  <text x="570" y="1040" font-family="Arial" font-size="12">Connections</text>
  <text x="570" y="1060" font-family="Arial" font-size="24" font-weight="bold">156</text>
  
  <!-- ADMIN PAGE -->
  <text x="50" y="1350" font-family="Arial" font-size="20" font-weight="bold" fill="#333">ADMIN PAGE</text>
  <rect x="0" y="1370" width="1200" height="60" fill="#1e3a8a" stroke="#ccc"/>
  <text x="50" y="1400" font-family="Arial" font-size="16" font-weight="bold" fill="#fff">SPDNC Admin</text>
  
  <rect x="0" y="1430" width="250" height="300" fill="#fff" stroke="#ccc"/>
  <text x="20" y="1460" font-family="Arial" font-size="14" font-weight="bold">Admin Menu</text>
  <rect x="20" y="1480" width="210" height="30" fill="#1e3a8a"/>
  <text x="30" y="1500" font-family="Arial" font-size="12" fill="#fff">Dashboard</text>
  <rect x="20" y="1520" width="210" height="30" fill="#f8f9fa"/>
  <text x="30" y="1540" font-family="Arial" font-size="12">User Management</text>
  
  <rect x="270" y="1430" width="900" height="300" fill="#fff" stroke="#ccc"/>
  <text x="290" y="1460" font-family="Arial" font-size="24" font-weight="bold">Admin Dashboard</text>
  <rect x="290" y="1480" width="200" height="80" fill="#f8f9fa"/>
  <text x="300" y="1500" font-family="Arial" font-size="12">Total Alumni</text>
  <text x="300" y="1520" font-family="Arial" font-size="20" font-weight="bold">2,456</text>
  <rect x="510" y="1480" width="200" height="80" fill="#f8f9fa"/>
  <text x="520" y="1500" font-family="Arial" font-size="12">Active Users</text>
  <text x="520" y="1520" font-family="Arial" font-size="20" font-weight="bold">1,234</text>
  
  <!-- DIRECTORY PAGE -->
  <text x="50" y="1810" font-family="Arial" font-size="20" font-weight="bold" fill="#333">DIRECTORY PAGE</text>
  <rect x="0" y="1830" width="1200" height="60" fill="#fff" stroke="#ccc"/>
  <text x="50" y="1860" font-family="Arial" font-size="24" font-weight="bold">Alumni Directory</text>
  <rect x="700" y="1840" width="400" height="30" fill="#f8f9fa" stroke="#ccc"/>
  <text x="710" y="1860" font-family="Arial" font-size="12" fill="#666">Search alumni...</text>
  
  <rect x="0" y="1890" width="250" height="200" fill="#fff" stroke="#ccc"/>
  <text x="20" y="1920" font-family="Arial" font-size="14" font-weight="bold">Filter Alumni</text>
  <rect x="20" y="1940" width="210" height="25" fill="#f8f9fa" stroke="#ccc"/>
  <text x="30" y="1955" font-family="Arial" font-size="12" fill="#666">Graduation Year</text>
  
  <rect x="270" y="1890" width="900" height="200" fill="#fff" stroke="#ccc"/>
  <rect x="290" y="1920" width="250" height="120" fill="#f8f9fa" stroke="#ddd"/>
  <circle cx="320" cy="1950" r="20" fill="#1e3a8a"/>
  <text x="350" y="1950" font-family="Arial" font-size="14" font-weight="bold">John Smith</text>
  <text x="350" y="1965" font-family="Arial" font-size="12" fill="#666">Class of 2020</text>
  <rect x="350" y="2000" width="80" height="25" fill="#1e3a8a"/>
  <text x="380" y="2015" font-family="Arial" font-size="10" fill="#fff">Connect</text>
  
  <!-- EVENTS PAGE -->
  <text x="50" y="2170" font-family="Arial" font-size="20" font-weight="bold" fill="#333">EVENTS PAGE</text>
  <rect x="0" y="2190" width="1200" height="60" fill="#fff" stroke="#ccc"/>
  <text x="50" y="2220" font-family="Arial" font-size="24" font-weight="bold">Alumni Events</text>
  
  <rect x="0" y="2250" width="800" height="200" fill="#fff" stroke="#ccc"/>
  <rect x="20" y="2280" width="750" height="80" fill="#f8f9fa" stroke="#ddd"/>
  <text x="30" y="2300" font-family="Arial" font-size="16" font-weight="bold">Annual Alumni Meet 2024</text>
  <text x="30" y="2320" font-family="Arial" font-size="12" fill="#666">Dec 15, 2024 | Thane Campus</text>
  <rect x="600" y="2330" width="100" height="25" fill="#1e3a8a"/>
  <text x="630" y="2345" font-family="Arial" font-size="10" fill="#fff">Register</text>
  
  <rect x="820" y="2250" width="350" height="200" fill="#fff" stroke="#ccc"/>
  <text x="840" y="2280" font-family="Arial" font-size="14" font-weight="bold">Filter Events</text>
  <text x="840" y="2300" font-family="Arial" font-size="12">Event Type</text>
  
  <!-- NEWS PAGE -->
  <text x="50" y="2530" font-family="Arial" font-size="20" font-weight="bold" fill="#333">NEWS PAGE</text>
  <rect x="0" y="2550" width="1200" height="60" fill="#fff" stroke="#ccc"/>
  <text x="50" y="2580" font-family="Arial" font-size="24" font-weight="bold">News & Updates</text>
  
  <rect x="0" y="2610" width="800" height="200" fill="#fff" stroke="#ccc"/>
  <rect x="20" y="2640" width="750" height="100" fill="#f8f9fa" stroke="#ddd"/>
  <rect x="30" y="2650" width="60" height="20" fill="#1e3a8a"/>
  <text x="40" y="2663" font-family="Arial" font-size="10" fill="#fff">News</text>
  <text x="30" y="2680" font-family="Arial" font-size="16" font-weight="bold">Scholarship Fund Launched</text>
  <text x="30" y="2700" font-family="Arial" font-size="12" fill="#666">Alumni contributions establish scholarships...</text>
  
  <rect x="820" y="2610" width="350" height="200" fill="#fff" stroke="#ccc"/>
  <text x="840" y="2640" font-family="Arial" font-size="14" font-weight="bold">Trending Topics</text>
  <rect x="840" y="2660" width="300" height="25" fill="#f8f9fa"/>
  <text x="850" y="2675" font-family="Arial" font-size="12">#Innovation2024</text>
  
  <!-- JOBS PAGE -->
  <text x="50" y="2890" font-family="Arial" font-size="20" font-weight="bold" fill="#333">JOBS PAGE</text>
  <rect x="0" y="2910" width="1200" height="60" fill="#fff" stroke="#ccc"/>
  <text x="50" y="2940" font-family="Arial" font-size="24" font-weight="bold">Job Board</text>
  <rect x="700" y="2920" width="400" height="30" fill="#f8f9fa" stroke="#ccc"/>
  <text x="710" y="2940" font-family="Arial" font-size="12" fill="#666">Search jobs...</text>
  
  <rect x="0" y="2970" width="800" height="200" fill="#fff" stroke="#ccc"/>
  <rect x="20" y="3000" width="750" height="100" fill="#f8f9fa" stroke="#ddd"/>
  <text x="30" y="3020" font-family="Arial" font-size="16" font-weight="bold">Software Engineer</text>
  <text x="30" y="3040" font-family="Arial" font-size="12" fill="#666">Tech Corp | Mumbai | Full Time</text>
  <rect x="600" y="3070" width="80" height="25" fill="#1e3a8a"/>
  <text x="625" y="3085" font-family="Arial" font-size="10" fill="#fff">Apply Now</text>
  
  <rect x="820" y="2970" width="350" height="200" fill="#fff" stroke="#ccc"/>
  <text x="840" y="3000" font-family="Arial" font-size="14" font-weight="bold">Job Filters</text>
  <text x="840" y="3020" font-family="Arial" font-size="12">Job Type</text>
  
  <!-- REGISTER PAGE -->
  <text x="50" y="3250" font-family="Arial" font-size="20" font-weight="bold" fill="#333">REGISTER PAGE</text>
  <rect x="0" y="3270" width="1200" height="300" fill="#f8f9fa" stroke="#ccc"/>
  <rect x="400" y="3320" width="400" height="200" fill="#fff" stroke="#ddd" rx="10"/>
  <text x="580" y="3350" font-family="Arial" font-size="24" font-weight="bold">Join Alumni Network</text>
  
  <circle cx="500" cy="3380" r="15" fill="#1e3a8a"/>
  <text x="495" y="3385" font-family="Arial" font-size="12" fill="#fff">1</text>
  <circle cx="600" cy="3380" r="15" fill="#ccc"/>
  <text x="595" y="3385" font-family="Arial" font-size="12" fill="#fff">2</text>
  <circle cx="700" cy="3380" r="15" fill="#ccc"/>
  <text x="695" y="3385" font-family="Arial" font-size="12" fill="#fff">3</text>
  
  <rect x="420" y="3420" width="170" height="25" fill="#f8f9fa" stroke="#ccc"/>
  <text x="430" y="3435" font-family="Arial" font-size="12" fill="#666">First Name</text>
  <rect x="610" y="3420" width="170" height="25" fill="#f8f9fa" stroke="#ccc"/>
  <text x="620" y="3435" font-family="Arial" font-size="12" fill="#666">Last Name</text>
  
  <!-- STUDENT/FACULTY LOGIN -->
  <text x="50" y="3650" font-family="Arial" font-size="20" font-weight="bold" fill="#333">STUDENT/FACULTY LOGIN</text>
  <rect x="0" y="3670" width="600" height="200" fill="#f8f9fa" stroke="#ccc"/>
  <rect x="50" y="3720" width="200" height="100" fill="#fff" stroke="#ddd" rx="10"/>
  <text x="130" y="3750" font-family="Arial" font-size="16" font-weight="bold">Student Login</text>
  <rect x="70" y="3760" width="160" height="20" fill="#f8f9fa" stroke="#ccc"/>
  <text x="80" y="3773" font-family="Arial" font-size="10" fill="#666">Student ID</text>
  
  <rect x="350" y="3720" width="200" height="100" fill="#fff" stroke="#ddd" rx="10"/>
  <text x="430" y="3750" font-family="Arial" font-size="16" font-weight="bold">Faculty Login</text>
  <rect x="370" y="3760" width="160" height="20" fill="#f8f9fa" stroke="#ccc"/>
  <text x="380" y="3773" font-family="Arial" font-size="10" fill="#666">Employee ID</text>
</svg>